M48
;DRILL file {KiCad 5.0.0-fee4fd1~66~ubuntu18.04.1} date Fri Oct 12 12:58:29 2018
;FORMAT={-:-/ absolute / inch / decimal}
FMAT,2
INCH,TZ
T1C0.0315
T2C0.0394
T3C0.0433
T4C0.0472
T5C0.0512
%
G90
G05
M72
T1
X2.35Y-2.85
X2.35Y-2.95
X2.35Y-3.05
X2.35Y-3.15
X2.65Y-2.85
X2.65Y-2.95
X2.65Y-3.05
X2.65Y-3.15
X2.75Y-1.95
X2.75Y-2.0996
X2.75Y-2.35
X2.75Y-2.4996
X1.4504Y-3.6
X1.6Y-3.6
T2
X2.2Y-1.95
X2.2Y-2.05
X2.2Y-2.15
X1.7Y-2.
X1.7Y-2.1
X1.7Y-2.2
X1.7Y-2.3
X1.7Y-2.4
X0.85Y-2.4
X1.75Y-2.85
X1.75Y-2.95
X1.75Y-3.05
X1.4Y-2.85
X1.4Y-2.95
X1.4Y-3.05
X0.95Y-2.8
X1.1Y-2.4
X1.1Y-2.5
X1.1Y-2.6
X3.85Y-2.45
X3.85Y-2.55
X3.85Y-2.65
X3.85Y-2.75
X3.85Y-2.85
T3
X0.95Y-3.
X0.95Y-3.4
T4
X3.05Y-2.95
X3.35Y-2.95
X3.05Y-2.75
X3.35Y-2.75
X1.45Y-2.3
X1.45Y-2.6
X1.7Y-3.25
X2.Y-3.25
X3.05Y-3.35
X3.35Y-3.35
X3.05Y-3.15
X3.35Y-3.15
T5
X3.7Y-1.8122
X3.7Y-1.95
T0
M30
