G04 #@! TF.GenerationSoftware,KiCad,Pcbnew,5.0.0-fee4fd1~66~ubuntu18.04.1*
G04 #@! TF.CreationDate,2018-10-11T19:26:43-04:00*
G04 #@! TF.ProjectId,switcher,73776974636865722E6B696361645F70,rev?*
G04 #@! TF.SameCoordinates,Original*
G04 #@! TF.FileFunction,Copper,L2,Bot,Signal*
G04 #@! TF.FilePolarity,Positive*
%FSLAX46Y46*%
G04 Gerber Fmt 4.6, Leading zero omitted, Abs format (unit mm)*
G04 Created by KiCad (PCBNEW 5.0.0-fee4fd1~66~ubuntu18.04.1) date Thu Oct 11 19:26:43 2018*
%MOMM*%
%LPD*%
G01*
G04 APERTURE LIST*
G04 #@! TA.AperFunction,ComponentPad*
%ADD10R,1.600000X1.600000*%
G04 #@! TD*
G04 #@! TA.AperFunction,ComponentPad*
%ADD11C,1.600000*%
G04 #@! TD*
G04 #@! TA.AperFunction,ComponentPad*
%ADD12R,2.200000X2.200000*%
G04 #@! TD*
G04 #@! TA.AperFunction,ComponentPad*
%ADD13O,2.200000X2.200000*%
G04 #@! TD*
G04 #@! TA.AperFunction,ComponentPad*
%ADD14O,1.700000X1.700000*%
G04 #@! TD*
G04 #@! TA.AperFunction,ComponentPad*
%ADD15R,1.700000X1.700000*%
G04 #@! TD*
G04 #@! TA.AperFunction,ComponentPad*
%ADD16R,2.600000X2.600000*%
G04 #@! TD*
G04 #@! TA.AperFunction,ComponentPad*
%ADD17C,2.600000*%
G04 #@! TD*
G04 #@! TA.AperFunction,ComponentPad*
%ADD18C,2.400000*%
G04 #@! TD*
G04 #@! TA.AperFunction,ComponentPad*
%ADD19O,2.400000X2.400000*%
G04 #@! TD*
G04 #@! TA.AperFunction,ComponentPad*
%ADD20O,1.600000X1.600000*%
G04 #@! TD*
G04 APERTURE END LIST*
D10*
G04 #@! TO.P,C1,1*
G04 #@! TO.N,+VDC*
X69850000Y-49530000D03*
D11*
G04 #@! TO.P,C1,2*
G04 #@! TO.N,GND*
X69850000Y-53330000D03*
G04 #@! TD*
G04 #@! TO.P,C2,2*
G04 #@! TO.N,GND*
X69850000Y-63490000D03*
D10*
G04 #@! TO.P,C2,1*
G04 #@! TO.N,+3V3*
X69850000Y-59690000D03*
G04 #@! TD*
G04 #@! TO.P,C3,1*
G04 #@! TO.N,VDD-SWITCH*
X40640000Y-91440000D03*
D11*
G04 #@! TO.P,C3,2*
G04 #@! TO.N,GND*
X36840000Y-91440000D03*
G04 #@! TD*
D12*
G04 #@! TO.P,D1,1*
G04 #@! TO.N,VDD-SWITCH*
X24130000Y-76200000D03*
D13*
G04 #@! TO.P,D1,2*
G04 #@! TO.N,GND*
X24130000Y-86360000D03*
G04 #@! TD*
D14*
G04 #@! TO.P,J1,5*
G04 #@! TO.N,N/C*
X43180000Y-60960000D03*
G04 #@! TO.P,J1,4*
G04 #@! TO.N,Net-(J1-Pad4)*
X43180000Y-58420000D03*
G04 #@! TO.P,J1,3*
G04 #@! TO.N,Net-(J1-Pad3)*
X43180000Y-55880000D03*
G04 #@! TO.P,J1,2*
G04 #@! TO.N,GND*
X43180000Y-53340000D03*
D15*
G04 #@! TO.P,J1,1*
G04 #@! TO.N,+3V3*
X43180000Y-50800000D03*
G04 #@! TD*
D16*
G04 #@! TO.P,J2,1*
G04 #@! TO.N,+VDC*
X93980000Y-49530000D03*
D17*
G04 #@! TO.P,J2,2*
G04 #@! TO.N,GND*
X93980000Y-46030000D03*
G04 #@! TD*
D14*
G04 #@! TO.P,J3,3*
G04 #@! TO.N,+3V3*
X55880000Y-54610000D03*
G04 #@! TO.P,J3,2*
G04 #@! TO.N,GND*
X55880000Y-52070000D03*
D15*
G04 #@! TO.P,J3,1*
G04 #@! TO.N,+VDC*
X55880000Y-49530000D03*
G04 #@! TD*
G04 #@! TO.P,J4,1*
G04 #@! TO.N,VDD-SWITCH*
X97790000Y-72390000D03*
D14*
G04 #@! TO.P,J4,2*
G04 #@! TO.N,GND*
X97790000Y-69850000D03*
G04 #@! TO.P,J4,3*
G04 #@! TO.N,+3V3*
X97790000Y-67310000D03*
G04 #@! TO.P,J4,4*
G04 #@! TO.N,GND*
X97790000Y-64770000D03*
G04 #@! TO.P,J4,5*
G04 #@! TO.N,+VDC*
X97790000Y-62230000D03*
G04 #@! TD*
D15*
G04 #@! TO.P,MMBT2N3904,1*
G04 #@! TO.N,GND*
X27940000Y-60960000D03*
D14*
G04 #@! TO.P,MMBT2N3904,2*
G04 #@! TO.N,Net-(MMBT2N3904-Pad2)*
X27940000Y-63500000D03*
G04 #@! TO.P,MMBT2N3904,3*
G04 #@! TO.N,Net-(MMBT2N3904-Pad3)*
X27940000Y-66040000D03*
G04 #@! TD*
G04 #@! TO.P,Q1,3*
G04 #@! TO.N,VDD-SWITCH*
X44450000Y-77470000D03*
G04 #@! TO.P,Q1,2*
G04 #@! TO.N,Net-(Q1-Pad2)*
X44450000Y-74930000D03*
D15*
G04 #@! TO.P,Q1,1*
G04 #@! TO.N,Net-(MMBT2N3904-Pad3)*
X44450000Y-72390000D03*
G04 #@! TD*
G04 #@! TO.P,Q2,1*
G04 #@! TO.N,Net-(MMBT2N3904-Pad3)*
X35560000Y-72390000D03*
D14*
G04 #@! TO.P,Q2,2*
G04 #@! TO.N,Net-(Q1-Pad2)*
X35560000Y-74930000D03*
G04 #@! TO.P,Q2,3*
G04 #@! TO.N,+VDC*
X35560000Y-77470000D03*
G04 #@! TD*
D18*
G04 #@! TO.P,R1,1*
G04 #@! TO.N,GND*
X85090000Y-69850000D03*
D19*
G04 #@! TO.P,R1,2*
G04 #@! TO.N,Net-(R1-Pad2)*
X77470000Y-69850000D03*
G04 #@! TD*
G04 #@! TO.P,R2,2*
G04 #@! TO.N,Net-(R2-Pad2)*
X77470000Y-74930000D03*
D18*
G04 #@! TO.P,R2,1*
G04 #@! TO.N,GND*
X85090000Y-74930000D03*
G04 #@! TD*
G04 #@! TO.P,R3,1*
G04 #@! TO.N,GND*
X85090000Y-80010000D03*
D19*
G04 #@! TO.P,R3,2*
G04 #@! TO.N,Net-(R3-Pad2)*
X77470000Y-80010000D03*
G04 #@! TD*
G04 #@! TO.P,R4,2*
G04 #@! TO.N,Net-(R4-Pad2)*
X77470000Y-85090000D03*
D18*
G04 #@! TO.P,R4,1*
G04 #@! TO.N,GND*
X85090000Y-85090000D03*
G04 #@! TD*
D19*
G04 #@! TO.P,R5,2*
G04 #@! TO.N,Net-(J1-Pad4)*
X36830000Y-58420000D03*
D18*
G04 #@! TO.P,R5,1*
G04 #@! TO.N,Net-(MMBT2N3904-Pad2)*
X36830000Y-66040000D03*
G04 #@! TD*
G04 #@! TO.P,R6,1*
G04 #@! TO.N,Net-(MMBT2N3904-Pad3)*
X50800000Y-82550000D03*
D19*
G04 #@! TO.P,R6,2*
G04 #@! TO.N,+VDC*
X43180000Y-82550000D03*
G04 #@! TD*
D10*
G04 #@! TO.P,SW1,1*
G04 #@! TO.N,Net-(J1-Pad3)*
X59690000Y-72390000D03*
D20*
G04 #@! TO.P,SW1,5*
G04 #@! TO.N,Net-(R4-Pad2)*
X67310000Y-80010000D03*
G04 #@! TO.P,SW1,2*
G04 #@! TO.N,Net-(J1-Pad3)*
X59690000Y-74930000D03*
G04 #@! TO.P,SW1,6*
G04 #@! TO.N,Net-(R3-Pad2)*
X67310000Y-77470000D03*
G04 #@! TO.P,SW1,3*
G04 #@! TO.N,Net-(J1-Pad3)*
X59690000Y-77470000D03*
G04 #@! TO.P,SW1,7*
G04 #@! TO.N,Net-(R2-Pad2)*
X67310000Y-74930000D03*
G04 #@! TO.P,SW1,4*
G04 #@! TO.N,Net-(J1-Pad3)*
X59690000Y-80010000D03*
G04 #@! TO.P,SW1,8*
G04 #@! TO.N,Net-(R1-Pad2)*
X67310000Y-72390000D03*
G04 #@! TD*
D15*
G04 #@! TO.P,J5,1*
G04 #@! TO.N,+VDC*
X24130000Y-71120000D03*
G04 #@! TD*
G04 #@! TO.P,J6,1*
G04 #@! TO.N,+VDC*
X21590000Y-60960000D03*
G04 #@! TD*
M02*
