G04 #@! TF.GenerationSoftware,KiCad,Pcbnew,5.0.0-fee4fd1~66~ubuntu18.04.1*
G04 #@! TF.CreationDate,2018-10-12T12:58:26-04:00*
G04 #@! TF.ProjectId,switcher,73776974636865722E6B696361645F70,rev?*
G04 #@! TF.SameCoordinates,Original*
G04 #@! TF.FileFunction,Legend,Top*
G04 #@! TF.FilePolarity,Positive*
%FSLAX46Y46*%
G04 Gerber Fmt 4.6, Leading zero omitted, Abs format (unit mm)*
G04 Created by KiCad (PCBNEW 5.0.0-fee4fd1~66~ubuntu18.04.1) date Fri Oct 12 12:58:26 2018*
%MOMM*%
%LPD*%
G01*
G04 APERTURE LIST*
%ADD10C,0.120000*%
%ADD11C,0.150000*%
G04 APERTURE END LIST*
D10*
G04 #@! TO.C,C1*
X73970000Y-51430000D02*
G75*
G03X73970000Y-51430000I-4120000J0D01*
G01*
X73930000Y-51430000D02*
X65770000Y-51430000D01*
X73930000Y-51470000D02*
X65770000Y-51470000D01*
X73930000Y-51510000D02*
X65770000Y-51510000D01*
X73929000Y-51550000D02*
X65771000Y-51550000D01*
X73927000Y-51590000D02*
X65773000Y-51590000D01*
X73926000Y-51630000D02*
X65774000Y-51630000D01*
X73924000Y-51670000D02*
X65776000Y-51670000D01*
X73921000Y-51710000D02*
X65779000Y-51710000D01*
X73918000Y-51750000D02*
X65782000Y-51750000D01*
X73915000Y-51790000D02*
X65785000Y-51790000D01*
X73911000Y-51830000D02*
X65789000Y-51830000D01*
X73907000Y-51870000D02*
X65793000Y-51870000D01*
X73902000Y-51910000D02*
X65798000Y-51910000D01*
X73898000Y-51950000D02*
X65802000Y-51950000D01*
X73892000Y-51990000D02*
X65808000Y-51990000D01*
X73887000Y-52030000D02*
X65813000Y-52030000D01*
X73880000Y-52070000D02*
X65820000Y-52070000D01*
X73874000Y-52110000D02*
X65826000Y-52110000D01*
X73867000Y-52151000D02*
X65833000Y-52151000D01*
X73860000Y-52191000D02*
X65840000Y-52191000D01*
X73852000Y-52231000D02*
X65848000Y-52231000D01*
X73844000Y-52271000D02*
X65856000Y-52271000D01*
X73835000Y-52311000D02*
X70890000Y-52311000D01*
X68810000Y-52311000D02*
X65865000Y-52311000D01*
X73826000Y-52351000D02*
X70890000Y-52351000D01*
X68810000Y-52351000D02*
X65874000Y-52351000D01*
X73817000Y-52391000D02*
X70890000Y-52391000D01*
X68810000Y-52391000D02*
X65883000Y-52391000D01*
X73807000Y-52431000D02*
X70890000Y-52431000D01*
X68810000Y-52431000D02*
X65893000Y-52431000D01*
X73797000Y-52471000D02*
X70890000Y-52471000D01*
X68810000Y-52471000D02*
X65903000Y-52471000D01*
X73786000Y-52511000D02*
X70890000Y-52511000D01*
X68810000Y-52511000D02*
X65914000Y-52511000D01*
X73775000Y-52551000D02*
X70890000Y-52551000D01*
X68810000Y-52551000D02*
X65925000Y-52551000D01*
X73764000Y-52591000D02*
X70890000Y-52591000D01*
X68810000Y-52591000D02*
X65936000Y-52591000D01*
X73752000Y-52631000D02*
X70890000Y-52631000D01*
X68810000Y-52631000D02*
X65948000Y-52631000D01*
X73739000Y-52671000D02*
X70890000Y-52671000D01*
X68810000Y-52671000D02*
X65961000Y-52671000D01*
X73727000Y-52711000D02*
X70890000Y-52711000D01*
X68810000Y-52711000D02*
X65973000Y-52711000D01*
X73713000Y-52751000D02*
X70890000Y-52751000D01*
X68810000Y-52751000D02*
X65987000Y-52751000D01*
X73700000Y-52791000D02*
X70890000Y-52791000D01*
X68810000Y-52791000D02*
X66000000Y-52791000D01*
X73685000Y-52831000D02*
X70890000Y-52831000D01*
X68810000Y-52831000D02*
X66015000Y-52831000D01*
X73671000Y-52871000D02*
X70890000Y-52871000D01*
X68810000Y-52871000D02*
X66029000Y-52871000D01*
X73655000Y-52911000D02*
X70890000Y-52911000D01*
X68810000Y-52911000D02*
X66045000Y-52911000D01*
X73640000Y-52951000D02*
X70890000Y-52951000D01*
X68810000Y-52951000D02*
X66060000Y-52951000D01*
X73624000Y-52991000D02*
X70890000Y-52991000D01*
X68810000Y-52991000D02*
X66076000Y-52991000D01*
X73607000Y-53031000D02*
X70890000Y-53031000D01*
X68810000Y-53031000D02*
X66093000Y-53031000D01*
X73590000Y-53071000D02*
X70890000Y-53071000D01*
X68810000Y-53071000D02*
X66110000Y-53071000D01*
X73572000Y-53111000D02*
X70890000Y-53111000D01*
X68810000Y-53111000D02*
X66128000Y-53111000D01*
X73554000Y-53151000D02*
X70890000Y-53151000D01*
X68810000Y-53151000D02*
X66146000Y-53151000D01*
X73536000Y-53191000D02*
X70890000Y-53191000D01*
X68810000Y-53191000D02*
X66164000Y-53191000D01*
X73516000Y-53231000D02*
X70890000Y-53231000D01*
X68810000Y-53231000D02*
X66184000Y-53231000D01*
X73497000Y-53271000D02*
X70890000Y-53271000D01*
X68810000Y-53271000D02*
X66203000Y-53271000D01*
X73477000Y-53311000D02*
X70890000Y-53311000D01*
X68810000Y-53311000D02*
X66223000Y-53311000D01*
X73456000Y-53351000D02*
X70890000Y-53351000D01*
X68810000Y-53351000D02*
X66244000Y-53351000D01*
X73434000Y-53391000D02*
X70890000Y-53391000D01*
X68810000Y-53391000D02*
X66266000Y-53391000D01*
X73412000Y-53431000D02*
X70890000Y-53431000D01*
X68810000Y-53431000D02*
X66288000Y-53431000D01*
X73390000Y-53471000D02*
X70890000Y-53471000D01*
X68810000Y-53471000D02*
X66310000Y-53471000D01*
X73367000Y-53511000D02*
X70890000Y-53511000D01*
X68810000Y-53511000D02*
X66333000Y-53511000D01*
X73343000Y-53551000D02*
X70890000Y-53551000D01*
X68810000Y-53551000D02*
X66357000Y-53551000D01*
X73319000Y-53591000D02*
X70890000Y-53591000D01*
X68810000Y-53591000D02*
X66381000Y-53591000D01*
X73294000Y-53631000D02*
X70890000Y-53631000D01*
X68810000Y-53631000D02*
X66406000Y-53631000D01*
X73268000Y-53671000D02*
X70890000Y-53671000D01*
X68810000Y-53671000D02*
X66432000Y-53671000D01*
X73242000Y-53711000D02*
X70890000Y-53711000D01*
X68810000Y-53711000D02*
X66458000Y-53711000D01*
X73215000Y-53751000D02*
X70890000Y-53751000D01*
X68810000Y-53751000D02*
X66485000Y-53751000D01*
X73188000Y-53791000D02*
X70890000Y-53791000D01*
X68810000Y-53791000D02*
X66512000Y-53791000D01*
X73159000Y-53831000D02*
X70890000Y-53831000D01*
X68810000Y-53831000D02*
X66541000Y-53831000D01*
X73130000Y-53871000D02*
X70890000Y-53871000D01*
X68810000Y-53871000D02*
X66570000Y-53871000D01*
X73100000Y-53911000D02*
X70890000Y-53911000D01*
X68810000Y-53911000D02*
X66600000Y-53911000D01*
X73070000Y-53951000D02*
X70890000Y-53951000D01*
X68810000Y-53951000D02*
X66630000Y-53951000D01*
X73039000Y-53991000D02*
X70890000Y-53991000D01*
X68810000Y-53991000D02*
X66661000Y-53991000D01*
X73006000Y-54031000D02*
X70890000Y-54031000D01*
X68810000Y-54031000D02*
X66694000Y-54031000D01*
X72974000Y-54071000D02*
X70890000Y-54071000D01*
X68810000Y-54071000D02*
X66726000Y-54071000D01*
X72940000Y-54111000D02*
X70890000Y-54111000D01*
X68810000Y-54111000D02*
X66760000Y-54111000D01*
X72905000Y-54151000D02*
X70890000Y-54151000D01*
X68810000Y-54151000D02*
X66795000Y-54151000D01*
X72869000Y-54191000D02*
X70890000Y-54191000D01*
X68810000Y-54191000D02*
X66831000Y-54191000D01*
X72833000Y-54231000D02*
X70890000Y-54231000D01*
X68810000Y-54231000D02*
X66867000Y-54231000D01*
X72795000Y-54271000D02*
X70890000Y-54271000D01*
X68810000Y-54271000D02*
X66905000Y-54271000D01*
X72757000Y-54311000D02*
X70890000Y-54311000D01*
X68810000Y-54311000D02*
X66943000Y-54311000D01*
X72717000Y-54351000D02*
X70890000Y-54351000D01*
X68810000Y-54351000D02*
X66983000Y-54351000D01*
X72676000Y-54391000D02*
X67024000Y-54391000D01*
X72634000Y-54431000D02*
X67066000Y-54431000D01*
X72591000Y-54471000D02*
X67109000Y-54471000D01*
X72547000Y-54511000D02*
X67153000Y-54511000D01*
X72501000Y-54551000D02*
X67199000Y-54551000D01*
X72454000Y-54591000D02*
X67246000Y-54591000D01*
X72406000Y-54631000D02*
X67294000Y-54631000D01*
X72355000Y-54671000D02*
X67345000Y-54671000D01*
X72304000Y-54711000D02*
X67396000Y-54711000D01*
X72250000Y-54751000D02*
X67450000Y-54751000D01*
X72195000Y-54791000D02*
X67505000Y-54791000D01*
X72137000Y-54831000D02*
X67563000Y-54831000D01*
X72078000Y-54871000D02*
X67622000Y-54871000D01*
X72016000Y-54911000D02*
X67684000Y-54911000D01*
X71952000Y-54951000D02*
X67748000Y-54951000D01*
X71884000Y-54991000D02*
X67816000Y-54991000D01*
X71814000Y-55031000D02*
X67886000Y-55031000D01*
X71740000Y-55071000D02*
X67960000Y-55071000D01*
X71663000Y-55111000D02*
X68037000Y-55111000D01*
X71581000Y-55151000D02*
X68119000Y-55151000D01*
X71495000Y-55191000D02*
X68205000Y-55191000D01*
X71402000Y-55231000D02*
X68298000Y-55231000D01*
X71303000Y-55271000D02*
X68397000Y-55271000D01*
X71196000Y-55311000D02*
X68504000Y-55311000D01*
X71079000Y-55351000D02*
X68621000Y-55351000D01*
X70948000Y-55391000D02*
X68752000Y-55391000D01*
X70798000Y-55431000D02*
X68902000Y-55431000D01*
X70618000Y-55471000D02*
X69082000Y-55471000D01*
X70383000Y-55511000D02*
X69317000Y-55511000D01*
X72165000Y-47020302D02*
X72165000Y-47820302D01*
X72565000Y-47420302D02*
X71765000Y-47420302D01*
G04 #@! TO.C,C2*
X72565000Y-57580302D02*
X71765000Y-57580302D01*
X72165000Y-57180302D02*
X72165000Y-57980302D01*
X70383000Y-65671000D02*
X69317000Y-65671000D01*
X70618000Y-65631000D02*
X69082000Y-65631000D01*
X70798000Y-65591000D02*
X68902000Y-65591000D01*
X70948000Y-65551000D02*
X68752000Y-65551000D01*
X71079000Y-65511000D02*
X68621000Y-65511000D01*
X71196000Y-65471000D02*
X68504000Y-65471000D01*
X71303000Y-65431000D02*
X68397000Y-65431000D01*
X71402000Y-65391000D02*
X68298000Y-65391000D01*
X71495000Y-65351000D02*
X68205000Y-65351000D01*
X71581000Y-65311000D02*
X68119000Y-65311000D01*
X71663000Y-65271000D02*
X68037000Y-65271000D01*
X71740000Y-65231000D02*
X67960000Y-65231000D01*
X71814000Y-65191000D02*
X67886000Y-65191000D01*
X71884000Y-65151000D02*
X67816000Y-65151000D01*
X71952000Y-65111000D02*
X67748000Y-65111000D01*
X72016000Y-65071000D02*
X67684000Y-65071000D01*
X72078000Y-65031000D02*
X67622000Y-65031000D01*
X72137000Y-64991000D02*
X67563000Y-64991000D01*
X72195000Y-64951000D02*
X67505000Y-64951000D01*
X72250000Y-64911000D02*
X67450000Y-64911000D01*
X72304000Y-64871000D02*
X67396000Y-64871000D01*
X72355000Y-64831000D02*
X67345000Y-64831000D01*
X72406000Y-64791000D02*
X67294000Y-64791000D01*
X72454000Y-64751000D02*
X67246000Y-64751000D01*
X72501000Y-64711000D02*
X67199000Y-64711000D01*
X72547000Y-64671000D02*
X67153000Y-64671000D01*
X72591000Y-64631000D02*
X67109000Y-64631000D01*
X72634000Y-64591000D02*
X67066000Y-64591000D01*
X72676000Y-64551000D02*
X67024000Y-64551000D01*
X68810000Y-64511000D02*
X66983000Y-64511000D01*
X72717000Y-64511000D02*
X70890000Y-64511000D01*
X68810000Y-64471000D02*
X66943000Y-64471000D01*
X72757000Y-64471000D02*
X70890000Y-64471000D01*
X68810000Y-64431000D02*
X66905000Y-64431000D01*
X72795000Y-64431000D02*
X70890000Y-64431000D01*
X68810000Y-64391000D02*
X66867000Y-64391000D01*
X72833000Y-64391000D02*
X70890000Y-64391000D01*
X68810000Y-64351000D02*
X66831000Y-64351000D01*
X72869000Y-64351000D02*
X70890000Y-64351000D01*
X68810000Y-64311000D02*
X66795000Y-64311000D01*
X72905000Y-64311000D02*
X70890000Y-64311000D01*
X68810000Y-64271000D02*
X66760000Y-64271000D01*
X72940000Y-64271000D02*
X70890000Y-64271000D01*
X68810000Y-64231000D02*
X66726000Y-64231000D01*
X72974000Y-64231000D02*
X70890000Y-64231000D01*
X68810000Y-64191000D02*
X66694000Y-64191000D01*
X73006000Y-64191000D02*
X70890000Y-64191000D01*
X68810000Y-64151000D02*
X66661000Y-64151000D01*
X73039000Y-64151000D02*
X70890000Y-64151000D01*
X68810000Y-64111000D02*
X66630000Y-64111000D01*
X73070000Y-64111000D02*
X70890000Y-64111000D01*
X68810000Y-64071000D02*
X66600000Y-64071000D01*
X73100000Y-64071000D02*
X70890000Y-64071000D01*
X68810000Y-64031000D02*
X66570000Y-64031000D01*
X73130000Y-64031000D02*
X70890000Y-64031000D01*
X68810000Y-63991000D02*
X66541000Y-63991000D01*
X73159000Y-63991000D02*
X70890000Y-63991000D01*
X68810000Y-63951000D02*
X66512000Y-63951000D01*
X73188000Y-63951000D02*
X70890000Y-63951000D01*
X68810000Y-63911000D02*
X66485000Y-63911000D01*
X73215000Y-63911000D02*
X70890000Y-63911000D01*
X68810000Y-63871000D02*
X66458000Y-63871000D01*
X73242000Y-63871000D02*
X70890000Y-63871000D01*
X68810000Y-63831000D02*
X66432000Y-63831000D01*
X73268000Y-63831000D02*
X70890000Y-63831000D01*
X68810000Y-63791000D02*
X66406000Y-63791000D01*
X73294000Y-63791000D02*
X70890000Y-63791000D01*
X68810000Y-63751000D02*
X66381000Y-63751000D01*
X73319000Y-63751000D02*
X70890000Y-63751000D01*
X68810000Y-63711000D02*
X66357000Y-63711000D01*
X73343000Y-63711000D02*
X70890000Y-63711000D01*
X68810000Y-63671000D02*
X66333000Y-63671000D01*
X73367000Y-63671000D02*
X70890000Y-63671000D01*
X68810000Y-63631000D02*
X66310000Y-63631000D01*
X73390000Y-63631000D02*
X70890000Y-63631000D01*
X68810000Y-63591000D02*
X66288000Y-63591000D01*
X73412000Y-63591000D02*
X70890000Y-63591000D01*
X68810000Y-63551000D02*
X66266000Y-63551000D01*
X73434000Y-63551000D02*
X70890000Y-63551000D01*
X68810000Y-63511000D02*
X66244000Y-63511000D01*
X73456000Y-63511000D02*
X70890000Y-63511000D01*
X68810000Y-63471000D02*
X66223000Y-63471000D01*
X73477000Y-63471000D02*
X70890000Y-63471000D01*
X68810000Y-63431000D02*
X66203000Y-63431000D01*
X73497000Y-63431000D02*
X70890000Y-63431000D01*
X68810000Y-63391000D02*
X66184000Y-63391000D01*
X73516000Y-63391000D02*
X70890000Y-63391000D01*
X68810000Y-63351000D02*
X66164000Y-63351000D01*
X73536000Y-63351000D02*
X70890000Y-63351000D01*
X68810000Y-63311000D02*
X66146000Y-63311000D01*
X73554000Y-63311000D02*
X70890000Y-63311000D01*
X68810000Y-63271000D02*
X66128000Y-63271000D01*
X73572000Y-63271000D02*
X70890000Y-63271000D01*
X68810000Y-63231000D02*
X66110000Y-63231000D01*
X73590000Y-63231000D02*
X70890000Y-63231000D01*
X68810000Y-63191000D02*
X66093000Y-63191000D01*
X73607000Y-63191000D02*
X70890000Y-63191000D01*
X68810000Y-63151000D02*
X66076000Y-63151000D01*
X73624000Y-63151000D02*
X70890000Y-63151000D01*
X68810000Y-63111000D02*
X66060000Y-63111000D01*
X73640000Y-63111000D02*
X70890000Y-63111000D01*
X68810000Y-63071000D02*
X66045000Y-63071000D01*
X73655000Y-63071000D02*
X70890000Y-63071000D01*
X68810000Y-63031000D02*
X66029000Y-63031000D01*
X73671000Y-63031000D02*
X70890000Y-63031000D01*
X68810000Y-62991000D02*
X66015000Y-62991000D01*
X73685000Y-62991000D02*
X70890000Y-62991000D01*
X68810000Y-62951000D02*
X66000000Y-62951000D01*
X73700000Y-62951000D02*
X70890000Y-62951000D01*
X68810000Y-62911000D02*
X65987000Y-62911000D01*
X73713000Y-62911000D02*
X70890000Y-62911000D01*
X68810000Y-62871000D02*
X65973000Y-62871000D01*
X73727000Y-62871000D02*
X70890000Y-62871000D01*
X68810000Y-62831000D02*
X65961000Y-62831000D01*
X73739000Y-62831000D02*
X70890000Y-62831000D01*
X68810000Y-62791000D02*
X65948000Y-62791000D01*
X73752000Y-62791000D02*
X70890000Y-62791000D01*
X68810000Y-62751000D02*
X65936000Y-62751000D01*
X73764000Y-62751000D02*
X70890000Y-62751000D01*
X68810000Y-62711000D02*
X65925000Y-62711000D01*
X73775000Y-62711000D02*
X70890000Y-62711000D01*
X68810000Y-62671000D02*
X65914000Y-62671000D01*
X73786000Y-62671000D02*
X70890000Y-62671000D01*
X68810000Y-62631000D02*
X65903000Y-62631000D01*
X73797000Y-62631000D02*
X70890000Y-62631000D01*
X68810000Y-62591000D02*
X65893000Y-62591000D01*
X73807000Y-62591000D02*
X70890000Y-62591000D01*
X68810000Y-62551000D02*
X65883000Y-62551000D01*
X73817000Y-62551000D02*
X70890000Y-62551000D01*
X68810000Y-62511000D02*
X65874000Y-62511000D01*
X73826000Y-62511000D02*
X70890000Y-62511000D01*
X68810000Y-62471000D02*
X65865000Y-62471000D01*
X73835000Y-62471000D02*
X70890000Y-62471000D01*
X73844000Y-62431000D02*
X65856000Y-62431000D01*
X73852000Y-62391000D02*
X65848000Y-62391000D01*
X73860000Y-62351000D02*
X65840000Y-62351000D01*
X73867000Y-62311000D02*
X65833000Y-62311000D01*
X73874000Y-62270000D02*
X65826000Y-62270000D01*
X73880000Y-62230000D02*
X65820000Y-62230000D01*
X73887000Y-62190000D02*
X65813000Y-62190000D01*
X73892000Y-62150000D02*
X65808000Y-62150000D01*
X73898000Y-62110000D02*
X65802000Y-62110000D01*
X73902000Y-62070000D02*
X65798000Y-62070000D01*
X73907000Y-62030000D02*
X65793000Y-62030000D01*
X73911000Y-61990000D02*
X65789000Y-61990000D01*
X73915000Y-61950000D02*
X65785000Y-61950000D01*
X73918000Y-61910000D02*
X65782000Y-61910000D01*
X73921000Y-61870000D02*
X65779000Y-61870000D01*
X73924000Y-61830000D02*
X65776000Y-61830000D01*
X73926000Y-61790000D02*
X65774000Y-61790000D01*
X73927000Y-61750000D02*
X65773000Y-61750000D01*
X73929000Y-61710000D02*
X65771000Y-61710000D01*
X73930000Y-61670000D02*
X65770000Y-61670000D01*
X73930000Y-61630000D02*
X65770000Y-61630000D01*
X73930000Y-61590000D02*
X65770000Y-61590000D01*
X73970000Y-61590000D02*
G75*
G03X73970000Y-61590000I-4120000J0D01*
G01*
G04 #@! TO.C,C3*
X42860000Y-91440000D02*
G75*
G03X42860000Y-91440000I-4120000J0D01*
G01*
X38740000Y-95520000D02*
X38740000Y-87360000D01*
X38700000Y-95520000D02*
X38700000Y-87360000D01*
X38660000Y-95520000D02*
X38660000Y-87360000D01*
X38620000Y-95519000D02*
X38620000Y-87361000D01*
X38580000Y-95517000D02*
X38580000Y-87363000D01*
X38540000Y-95516000D02*
X38540000Y-87364000D01*
X38500000Y-95514000D02*
X38500000Y-87366000D01*
X38460000Y-95511000D02*
X38460000Y-87369000D01*
X38420000Y-95508000D02*
X38420000Y-87372000D01*
X38380000Y-95505000D02*
X38380000Y-87375000D01*
X38340000Y-95501000D02*
X38340000Y-87379000D01*
X38300000Y-95497000D02*
X38300000Y-87383000D01*
X38260000Y-95492000D02*
X38260000Y-87388000D01*
X38220000Y-95488000D02*
X38220000Y-87392000D01*
X38180000Y-95482000D02*
X38180000Y-87398000D01*
X38140000Y-95477000D02*
X38140000Y-87403000D01*
X38100000Y-95470000D02*
X38100000Y-87410000D01*
X38060000Y-95464000D02*
X38060000Y-87416000D01*
X38019000Y-95457000D02*
X38019000Y-87423000D01*
X37979000Y-95450000D02*
X37979000Y-87430000D01*
X37939000Y-95442000D02*
X37939000Y-87438000D01*
X37899000Y-95434000D02*
X37899000Y-87446000D01*
X37859000Y-95425000D02*
X37859000Y-92480000D01*
X37859000Y-90400000D02*
X37859000Y-87455000D01*
X37819000Y-95416000D02*
X37819000Y-92480000D01*
X37819000Y-90400000D02*
X37819000Y-87464000D01*
X37779000Y-95407000D02*
X37779000Y-92480000D01*
X37779000Y-90400000D02*
X37779000Y-87473000D01*
X37739000Y-95397000D02*
X37739000Y-92480000D01*
X37739000Y-90400000D02*
X37739000Y-87483000D01*
X37699000Y-95387000D02*
X37699000Y-92480000D01*
X37699000Y-90400000D02*
X37699000Y-87493000D01*
X37659000Y-95376000D02*
X37659000Y-92480000D01*
X37659000Y-90400000D02*
X37659000Y-87504000D01*
X37619000Y-95365000D02*
X37619000Y-92480000D01*
X37619000Y-90400000D02*
X37619000Y-87515000D01*
X37579000Y-95354000D02*
X37579000Y-92480000D01*
X37579000Y-90400000D02*
X37579000Y-87526000D01*
X37539000Y-95342000D02*
X37539000Y-92480000D01*
X37539000Y-90400000D02*
X37539000Y-87538000D01*
X37499000Y-95329000D02*
X37499000Y-92480000D01*
X37499000Y-90400000D02*
X37499000Y-87551000D01*
X37459000Y-95317000D02*
X37459000Y-92480000D01*
X37459000Y-90400000D02*
X37459000Y-87563000D01*
X37419000Y-95303000D02*
X37419000Y-92480000D01*
X37419000Y-90400000D02*
X37419000Y-87577000D01*
X37379000Y-95290000D02*
X37379000Y-92480000D01*
X37379000Y-90400000D02*
X37379000Y-87590000D01*
X37339000Y-95275000D02*
X37339000Y-92480000D01*
X37339000Y-90400000D02*
X37339000Y-87605000D01*
X37299000Y-95261000D02*
X37299000Y-92480000D01*
X37299000Y-90400000D02*
X37299000Y-87619000D01*
X37259000Y-95245000D02*
X37259000Y-92480000D01*
X37259000Y-90400000D02*
X37259000Y-87635000D01*
X37219000Y-95230000D02*
X37219000Y-92480000D01*
X37219000Y-90400000D02*
X37219000Y-87650000D01*
X37179000Y-95214000D02*
X37179000Y-92480000D01*
X37179000Y-90400000D02*
X37179000Y-87666000D01*
X37139000Y-95197000D02*
X37139000Y-92480000D01*
X37139000Y-90400000D02*
X37139000Y-87683000D01*
X37099000Y-95180000D02*
X37099000Y-92480000D01*
X37099000Y-90400000D02*
X37099000Y-87700000D01*
X37059000Y-95162000D02*
X37059000Y-92480000D01*
X37059000Y-90400000D02*
X37059000Y-87718000D01*
X37019000Y-95144000D02*
X37019000Y-92480000D01*
X37019000Y-90400000D02*
X37019000Y-87736000D01*
X36979000Y-95126000D02*
X36979000Y-92480000D01*
X36979000Y-90400000D02*
X36979000Y-87754000D01*
X36939000Y-95106000D02*
X36939000Y-92480000D01*
X36939000Y-90400000D02*
X36939000Y-87774000D01*
X36899000Y-95087000D02*
X36899000Y-92480000D01*
X36899000Y-90400000D02*
X36899000Y-87793000D01*
X36859000Y-95067000D02*
X36859000Y-92480000D01*
X36859000Y-90400000D02*
X36859000Y-87813000D01*
X36819000Y-95046000D02*
X36819000Y-92480000D01*
X36819000Y-90400000D02*
X36819000Y-87834000D01*
X36779000Y-95024000D02*
X36779000Y-92480000D01*
X36779000Y-90400000D02*
X36779000Y-87856000D01*
X36739000Y-95002000D02*
X36739000Y-92480000D01*
X36739000Y-90400000D02*
X36739000Y-87878000D01*
X36699000Y-94980000D02*
X36699000Y-92480000D01*
X36699000Y-90400000D02*
X36699000Y-87900000D01*
X36659000Y-94957000D02*
X36659000Y-92480000D01*
X36659000Y-90400000D02*
X36659000Y-87923000D01*
X36619000Y-94933000D02*
X36619000Y-92480000D01*
X36619000Y-90400000D02*
X36619000Y-87947000D01*
X36579000Y-94909000D02*
X36579000Y-92480000D01*
X36579000Y-90400000D02*
X36579000Y-87971000D01*
X36539000Y-94884000D02*
X36539000Y-92480000D01*
X36539000Y-90400000D02*
X36539000Y-87996000D01*
X36499000Y-94858000D02*
X36499000Y-92480000D01*
X36499000Y-90400000D02*
X36499000Y-88022000D01*
X36459000Y-94832000D02*
X36459000Y-92480000D01*
X36459000Y-90400000D02*
X36459000Y-88048000D01*
X36419000Y-94805000D02*
X36419000Y-92480000D01*
X36419000Y-90400000D02*
X36419000Y-88075000D01*
X36379000Y-94778000D02*
X36379000Y-92480000D01*
X36379000Y-90400000D02*
X36379000Y-88102000D01*
X36339000Y-94749000D02*
X36339000Y-92480000D01*
X36339000Y-90400000D02*
X36339000Y-88131000D01*
X36299000Y-94720000D02*
X36299000Y-92480000D01*
X36299000Y-90400000D02*
X36299000Y-88160000D01*
X36259000Y-94690000D02*
X36259000Y-92480000D01*
X36259000Y-90400000D02*
X36259000Y-88190000D01*
X36219000Y-94660000D02*
X36219000Y-92480000D01*
X36219000Y-90400000D02*
X36219000Y-88220000D01*
X36179000Y-94629000D02*
X36179000Y-92480000D01*
X36179000Y-90400000D02*
X36179000Y-88251000D01*
X36139000Y-94596000D02*
X36139000Y-92480000D01*
X36139000Y-90400000D02*
X36139000Y-88284000D01*
X36099000Y-94564000D02*
X36099000Y-92480000D01*
X36099000Y-90400000D02*
X36099000Y-88316000D01*
X36059000Y-94530000D02*
X36059000Y-92480000D01*
X36059000Y-90400000D02*
X36059000Y-88350000D01*
X36019000Y-94495000D02*
X36019000Y-92480000D01*
X36019000Y-90400000D02*
X36019000Y-88385000D01*
X35979000Y-94459000D02*
X35979000Y-92480000D01*
X35979000Y-90400000D02*
X35979000Y-88421000D01*
X35939000Y-94423000D02*
X35939000Y-92480000D01*
X35939000Y-90400000D02*
X35939000Y-88457000D01*
X35899000Y-94385000D02*
X35899000Y-92480000D01*
X35899000Y-90400000D02*
X35899000Y-88495000D01*
X35859000Y-94347000D02*
X35859000Y-92480000D01*
X35859000Y-90400000D02*
X35859000Y-88533000D01*
X35819000Y-94307000D02*
X35819000Y-92480000D01*
X35819000Y-90400000D02*
X35819000Y-88573000D01*
X35779000Y-94266000D02*
X35779000Y-88614000D01*
X35739000Y-94224000D02*
X35739000Y-88656000D01*
X35699000Y-94181000D02*
X35699000Y-88699000D01*
X35659000Y-94137000D02*
X35659000Y-88743000D01*
X35619000Y-94091000D02*
X35619000Y-88789000D01*
X35579000Y-94044000D02*
X35579000Y-88836000D01*
X35539000Y-93996000D02*
X35539000Y-88884000D01*
X35499000Y-93945000D02*
X35499000Y-88935000D01*
X35459000Y-93894000D02*
X35459000Y-88986000D01*
X35419000Y-93840000D02*
X35419000Y-89040000D01*
X35379000Y-93785000D02*
X35379000Y-89095000D01*
X35339000Y-93727000D02*
X35339000Y-89153000D01*
X35299000Y-93668000D02*
X35299000Y-89212000D01*
X35259000Y-93606000D02*
X35259000Y-89274000D01*
X35219000Y-93542000D02*
X35219000Y-89338000D01*
X35179000Y-93474000D02*
X35179000Y-89406000D01*
X35139000Y-93404000D02*
X35139000Y-89476000D01*
X35099000Y-93330000D02*
X35099000Y-89550000D01*
X35059000Y-93253000D02*
X35059000Y-89627000D01*
X35019000Y-93171000D02*
X35019000Y-89709000D01*
X34979000Y-93085000D02*
X34979000Y-89795000D01*
X34939000Y-92992000D02*
X34939000Y-89888000D01*
X34899000Y-92893000D02*
X34899000Y-89987000D01*
X34859000Y-92786000D02*
X34859000Y-90094000D01*
X34819000Y-92669000D02*
X34819000Y-90211000D01*
X34779000Y-92538000D02*
X34779000Y-90342000D01*
X34739000Y-92388000D02*
X34739000Y-90492000D01*
X34699000Y-92208000D02*
X34699000Y-90672000D01*
X34659000Y-91973000D02*
X34659000Y-90907000D01*
X43149698Y-93755000D02*
X42349698Y-93755000D01*
X42749698Y-94155000D02*
X42749698Y-93355000D01*
G04 #@! TO.C,D1*
X25600000Y-78560000D02*
X22660000Y-78560000D01*
X22660000Y-78560000D02*
X22660000Y-84000000D01*
X22660000Y-84000000D02*
X25600000Y-84000000D01*
X25600000Y-84000000D02*
X25600000Y-78560000D01*
X24130000Y-77540000D02*
X24130000Y-78560000D01*
X24130000Y-85020000D02*
X24130000Y-84000000D01*
X25600000Y-79460000D02*
X22660000Y-79460000D01*
X25600000Y-79580000D02*
X22660000Y-79580000D01*
X25600000Y-79340000D02*
X22660000Y-79340000D01*
G04 #@! TO.C,J1*
X43180000Y-49470000D02*
X44510000Y-49470000D01*
X44510000Y-49470000D02*
X44510000Y-50800000D01*
X44510000Y-52070000D02*
X44510000Y-62290000D01*
X41850000Y-62290000D02*
X44510000Y-62290000D01*
X41850000Y-52070000D02*
X41850000Y-62290000D01*
X41850000Y-52070000D02*
X44510000Y-52070000D01*
G04 #@! TO.C,J2*
X92450566Y-50527890D02*
G75*
G02X92449000Y-48532000I-70566J997890D01*
G01*
X92722233Y-46969915D02*
G75*
G02X92722000Y-45090000I-342233J939915D01*
G01*
X95081000Y-51840000D02*
X95081000Y-51070000D01*
X95081000Y-47990000D02*
X95081000Y-47163000D01*
X95081000Y-44896000D02*
X95081000Y-43720000D01*
X90220000Y-51840000D02*
X90220000Y-43720000D01*
X98640000Y-51840000D02*
X98640000Y-43720000D01*
X90220000Y-51840000D02*
X98640000Y-51840000D01*
X90220000Y-43720000D02*
X98640000Y-43720000D01*
X90980000Y-50930000D02*
X90980000Y-48130000D01*
X90980000Y-50930000D02*
X92440000Y-50930000D01*
X90980000Y-48130000D02*
X92440000Y-48130000D01*
X90980000Y-47430000D02*
X90980000Y-44630000D01*
X94730000Y-47430000D02*
X94730000Y-47429000D01*
X94730000Y-44630000D02*
X94730000Y-44630000D01*
X90980000Y-47430000D02*
X93291000Y-47430000D01*
X94669000Y-47430000D02*
X94730000Y-47430000D01*
X90980000Y-44630000D02*
X93291000Y-44630000D01*
X94669000Y-44630000D02*
X94730000Y-44630000D01*
X96640000Y-52080000D02*
X98880000Y-52080000D01*
X98880000Y-52080000D02*
X98880000Y-50080000D01*
G04 #@! TO.C,J3*
X55880000Y-48200000D02*
X57210000Y-48200000D01*
X57210000Y-48200000D02*
X57210000Y-49530000D01*
X57210000Y-50800000D02*
X57210000Y-55940000D01*
X54550000Y-55940000D02*
X57210000Y-55940000D01*
X54550000Y-50800000D02*
X54550000Y-55940000D01*
X54550000Y-50800000D02*
X57210000Y-50800000D01*
G04 #@! TO.C,J4*
X99120000Y-71120000D02*
X96460000Y-71120000D01*
X99120000Y-71120000D02*
X99120000Y-60900000D01*
X99120000Y-60900000D02*
X96460000Y-60900000D01*
X96460000Y-71120000D02*
X96460000Y-60900000D01*
X96460000Y-73720000D02*
X96460000Y-72390000D01*
X97790000Y-73720000D02*
X96460000Y-73720000D01*
G04 #@! TO.C,MMBT2N3904*
X26610000Y-62230000D02*
X29270000Y-62230000D01*
X26610000Y-62230000D02*
X26610000Y-67370000D01*
X26610000Y-67370000D02*
X29270000Y-67370000D01*
X29270000Y-62230000D02*
X29270000Y-67370000D01*
X29270000Y-59630000D02*
X29270000Y-60960000D01*
X27940000Y-59630000D02*
X29270000Y-59630000D01*
G04 #@! TO.C,Q1*
X44450000Y-71060000D02*
X45780000Y-71060000D01*
X45780000Y-71060000D02*
X45780000Y-72390000D01*
X45780000Y-73660000D02*
X45780000Y-78800000D01*
X43120000Y-78800000D02*
X45780000Y-78800000D01*
X43120000Y-73660000D02*
X43120000Y-78800000D01*
X43120000Y-73660000D02*
X45780000Y-73660000D01*
G04 #@! TO.C,Q2*
X34230000Y-73660000D02*
X36890000Y-73660000D01*
X34230000Y-73660000D02*
X34230000Y-78800000D01*
X34230000Y-78800000D02*
X36890000Y-78800000D01*
X36890000Y-73660000D02*
X36890000Y-78800000D01*
X36890000Y-71060000D02*
X36890000Y-72390000D01*
X35560000Y-71060000D02*
X36890000Y-71060000D01*
G04 #@! TO.C,R1*
X87010000Y-69850000D02*
G75*
G03X87010000Y-69850000I-1920000J0D01*
G01*
X83170000Y-69850000D02*
X78970000Y-69850000D01*
G04 #@! TO.C,R2*
X83170000Y-74930000D02*
X78970000Y-74930000D01*
X87010000Y-74930000D02*
G75*
G03X87010000Y-74930000I-1920000J0D01*
G01*
G04 #@! TO.C,R3*
X87010000Y-80010000D02*
G75*
G03X87010000Y-80010000I-1920000J0D01*
G01*
X83170000Y-80010000D02*
X78970000Y-80010000D01*
G04 #@! TO.C,R4*
X83170000Y-85090000D02*
X78970000Y-85090000D01*
X87010000Y-85090000D02*
G75*
G03X87010000Y-85090000I-1920000J0D01*
G01*
G04 #@! TO.C,R5*
X36830000Y-64120000D02*
X36830000Y-59920000D01*
X38750000Y-66040000D02*
G75*
G03X38750000Y-66040000I-1920000J0D01*
G01*
G04 #@! TO.C,R6*
X52720000Y-82550000D02*
G75*
G03X52720000Y-82550000I-1920000J0D01*
G01*
X48880000Y-82550000D02*
X44680000Y-82550000D01*
G04 #@! TO.C,SW1*
X60090000Y-70280000D02*
X66911000Y-70280000D01*
X60090000Y-82120000D02*
X66911000Y-82120000D01*
X60090000Y-70280000D02*
X60090000Y-71350000D01*
X60090000Y-73430000D02*
X60090000Y-73941000D01*
X60090000Y-75920000D02*
X60090000Y-76481000D01*
X60090000Y-78460000D02*
X60090000Y-79021000D01*
X60090000Y-81000000D02*
X60090000Y-82120000D01*
X66911000Y-81000000D02*
X66911000Y-82120000D01*
X66911000Y-78460000D02*
X66911000Y-79021000D01*
X66911000Y-75920000D02*
X66911000Y-76481000D01*
X66911000Y-70280000D02*
X66911000Y-71400000D01*
X66911000Y-73380000D02*
X66911000Y-73941000D01*
X59850000Y-70040000D02*
X61233000Y-70040000D01*
X59850000Y-70040000D02*
X59850000Y-71350000D01*
X61690000Y-71755000D02*
X61690000Y-73025000D01*
X61690000Y-73025000D02*
X65310000Y-73025000D01*
X65310000Y-73025000D02*
X65310000Y-71755000D01*
X65310000Y-71755000D02*
X61690000Y-71755000D01*
X61690000Y-71875000D02*
X62896667Y-71875000D01*
X61690000Y-71995000D02*
X62896667Y-71995000D01*
X61690000Y-72115000D02*
X62896667Y-72115000D01*
X61690000Y-72235000D02*
X62896667Y-72235000D01*
X61690000Y-72355000D02*
X62896667Y-72355000D01*
X61690000Y-72475000D02*
X62896667Y-72475000D01*
X61690000Y-72595000D02*
X62896667Y-72595000D01*
X61690000Y-72715000D02*
X62896667Y-72715000D01*
X61690000Y-72835000D02*
X62896667Y-72835000D01*
X61690000Y-72955000D02*
X62896667Y-72955000D01*
X62896667Y-71755000D02*
X62896667Y-73025000D01*
X61690000Y-74295000D02*
X61690000Y-75565000D01*
X61690000Y-75565000D02*
X65310000Y-75565000D01*
X65310000Y-75565000D02*
X65310000Y-74295000D01*
X65310000Y-74295000D02*
X61690000Y-74295000D01*
X61690000Y-74415000D02*
X62896667Y-74415000D01*
X61690000Y-74535000D02*
X62896667Y-74535000D01*
X61690000Y-74655000D02*
X62896667Y-74655000D01*
X61690000Y-74775000D02*
X62896667Y-74775000D01*
X61690000Y-74895000D02*
X62896667Y-74895000D01*
X61690000Y-75015000D02*
X62896667Y-75015000D01*
X61690000Y-75135000D02*
X62896667Y-75135000D01*
X61690000Y-75255000D02*
X62896667Y-75255000D01*
X61690000Y-75375000D02*
X62896667Y-75375000D01*
X61690000Y-75495000D02*
X62896667Y-75495000D01*
X62896667Y-74295000D02*
X62896667Y-75565000D01*
X61690000Y-76835000D02*
X61690000Y-78105000D01*
X61690000Y-78105000D02*
X65310000Y-78105000D01*
X65310000Y-78105000D02*
X65310000Y-76835000D01*
X65310000Y-76835000D02*
X61690000Y-76835000D01*
X61690000Y-76955000D02*
X62896667Y-76955000D01*
X61690000Y-77075000D02*
X62896667Y-77075000D01*
X61690000Y-77195000D02*
X62896667Y-77195000D01*
X61690000Y-77315000D02*
X62896667Y-77315000D01*
X61690000Y-77435000D02*
X62896667Y-77435000D01*
X61690000Y-77555000D02*
X62896667Y-77555000D01*
X61690000Y-77675000D02*
X62896667Y-77675000D01*
X61690000Y-77795000D02*
X62896667Y-77795000D01*
X61690000Y-77915000D02*
X62896667Y-77915000D01*
X61690000Y-78035000D02*
X62896667Y-78035000D01*
X62896667Y-76835000D02*
X62896667Y-78105000D01*
X61690000Y-79375000D02*
X61690000Y-80645000D01*
X61690000Y-80645000D02*
X65310000Y-80645000D01*
X65310000Y-80645000D02*
X65310000Y-79375000D01*
X65310000Y-79375000D02*
X61690000Y-79375000D01*
X61690000Y-79495000D02*
X62896667Y-79495000D01*
X61690000Y-79615000D02*
X62896667Y-79615000D01*
X61690000Y-79735000D02*
X62896667Y-79735000D01*
X61690000Y-79855000D02*
X62896667Y-79855000D01*
X61690000Y-79975000D02*
X62896667Y-79975000D01*
X61690000Y-80095000D02*
X62896667Y-80095000D01*
X61690000Y-80215000D02*
X62896667Y-80215000D01*
X61690000Y-80335000D02*
X62896667Y-80335000D01*
X61690000Y-80455000D02*
X62896667Y-80455000D01*
X61690000Y-80575000D02*
X62896667Y-80575000D01*
X62896667Y-79375000D02*
X62896667Y-80645000D01*
G04 #@! TO.C,J5*
X22800000Y-72450000D02*
X25460000Y-72450000D01*
X22800000Y-72330000D02*
X22800000Y-72450000D01*
X25460000Y-72330000D02*
X25460000Y-72450000D01*
X25460000Y-69790000D02*
X25460000Y-71120000D01*
X24130000Y-69790000D02*
X25460000Y-69790000D01*
G04 #@! TO.C,J6*
X21590000Y-59630000D02*
X22920000Y-59630000D01*
X22920000Y-59630000D02*
X22920000Y-60960000D01*
X22920000Y-62170000D02*
X22920000Y-62290000D01*
X20260000Y-62170000D02*
X20260000Y-62290000D01*
X20260000Y-62290000D02*
X22920000Y-62290000D01*
G04 #@! TO.C,C1*
D11*
X75457142Y-51596666D02*
X75504761Y-51644285D01*
X75552380Y-51787142D01*
X75552380Y-51882380D01*
X75504761Y-52025238D01*
X75409523Y-52120476D01*
X75314285Y-52168095D01*
X75123809Y-52215714D01*
X74980952Y-52215714D01*
X74790476Y-52168095D01*
X74695238Y-52120476D01*
X74600000Y-52025238D01*
X74552380Y-51882380D01*
X74552380Y-51787142D01*
X74600000Y-51644285D01*
X74647619Y-51596666D01*
X75552380Y-50644285D02*
X75552380Y-51215714D01*
X75552380Y-50930000D02*
X74552380Y-50930000D01*
X74695238Y-51025238D01*
X74790476Y-51120476D01*
X74838095Y-51215714D01*
G04 #@! TO.C,C2*
X75457142Y-61756666D02*
X75504761Y-61804285D01*
X75552380Y-61947142D01*
X75552380Y-62042380D01*
X75504761Y-62185238D01*
X75409523Y-62280476D01*
X75314285Y-62328095D01*
X75123809Y-62375714D01*
X74980952Y-62375714D01*
X74790476Y-62328095D01*
X74695238Y-62280476D01*
X74600000Y-62185238D01*
X74552380Y-62042380D01*
X74552380Y-61947142D01*
X74600000Y-61804285D01*
X74647619Y-61756666D01*
X74647619Y-61375714D02*
X74600000Y-61328095D01*
X74552380Y-61232857D01*
X74552380Y-60994761D01*
X74600000Y-60899523D01*
X74647619Y-60851904D01*
X74742857Y-60804285D01*
X74838095Y-60804285D01*
X74980952Y-60851904D01*
X75552380Y-61423333D01*
X75552380Y-60804285D01*
G04 #@! TO.C,C3*
X38573333Y-97047142D02*
X38525714Y-97094761D01*
X38382857Y-97142380D01*
X38287619Y-97142380D01*
X38144761Y-97094761D01*
X38049523Y-96999523D01*
X38001904Y-96904285D01*
X37954285Y-96713809D01*
X37954285Y-96570952D01*
X38001904Y-96380476D01*
X38049523Y-96285238D01*
X38144761Y-96190000D01*
X38287619Y-96142380D01*
X38382857Y-96142380D01*
X38525714Y-96190000D01*
X38573333Y-96237619D01*
X38906666Y-96142380D02*
X39525714Y-96142380D01*
X39192380Y-96523333D01*
X39335238Y-96523333D01*
X39430476Y-96570952D01*
X39478095Y-96618571D01*
X39525714Y-96713809D01*
X39525714Y-96951904D01*
X39478095Y-97047142D01*
X39430476Y-97094761D01*
X39335238Y-97142380D01*
X39049523Y-97142380D01*
X38954285Y-97094761D01*
X38906666Y-97047142D01*
G04 #@! TO.C,D1*
X27052380Y-82018095D02*
X26052380Y-82018095D01*
X26052380Y-81780000D01*
X26100000Y-81637142D01*
X26195238Y-81541904D01*
X26290476Y-81494285D01*
X26480952Y-81446666D01*
X26623809Y-81446666D01*
X26814285Y-81494285D01*
X26909523Y-81541904D01*
X27004761Y-81637142D01*
X27052380Y-81780000D01*
X27052380Y-82018095D01*
X27052380Y-80494285D02*
X27052380Y-81065714D01*
X27052380Y-80780000D02*
X26052380Y-80780000D01*
X26195238Y-80875238D01*
X26290476Y-80970476D01*
X26338095Y-81065714D01*
X26682380Y-76461904D02*
X25682380Y-76461904D01*
X26682380Y-75890476D02*
X26110952Y-76319047D01*
X25682380Y-75890476D02*
X26253809Y-76461904D01*
G04 #@! TO.C,J1*
X42846666Y-47482380D02*
X42846666Y-48196666D01*
X42799047Y-48339523D01*
X42703809Y-48434761D01*
X42560952Y-48482380D01*
X42465714Y-48482380D01*
X43846666Y-48482380D02*
X43275238Y-48482380D01*
X43560952Y-48482380D02*
X43560952Y-47482380D01*
X43465714Y-47625238D01*
X43370476Y-47720476D01*
X43275238Y-47768095D01*
G04 #@! TO.C,J2*
X88672380Y-48113333D02*
X89386666Y-48113333D01*
X89529523Y-48160952D01*
X89624761Y-48256190D01*
X89672380Y-48399047D01*
X89672380Y-48494285D01*
X88767619Y-47684761D02*
X88720000Y-47637142D01*
X88672380Y-47541904D01*
X88672380Y-47303809D01*
X88720000Y-47208571D01*
X88767619Y-47160952D01*
X88862857Y-47113333D01*
X88958095Y-47113333D01*
X89100952Y-47160952D01*
X89672380Y-47732380D01*
X89672380Y-47113333D01*
G04 #@! TO.C,J3*
X55546666Y-46212380D02*
X55546666Y-46926666D01*
X55499047Y-47069523D01*
X55403809Y-47164761D01*
X55260952Y-47212380D01*
X55165714Y-47212380D01*
X55927619Y-46212380D02*
X56546666Y-46212380D01*
X56213333Y-46593333D01*
X56356190Y-46593333D01*
X56451428Y-46640952D01*
X56499047Y-46688571D01*
X56546666Y-46783809D01*
X56546666Y-47021904D01*
X56499047Y-47117142D01*
X56451428Y-47164761D01*
X56356190Y-47212380D01*
X56070476Y-47212380D01*
X55975238Y-47164761D01*
X55927619Y-47117142D01*
G04 #@! TO.C,J4*
X97456666Y-74612380D02*
X97456666Y-75326666D01*
X97409047Y-75469523D01*
X97313809Y-75564761D01*
X97170952Y-75612380D01*
X97075714Y-75612380D01*
X98361428Y-74945714D02*
X98361428Y-75612380D01*
X98123333Y-74564761D02*
X97885238Y-75279047D01*
X98504285Y-75279047D01*
G04 #@! TO.C,MMBT2N3904*
X23249523Y-58642380D02*
X23249523Y-57642380D01*
X23582857Y-58356666D01*
X23916190Y-57642380D01*
X23916190Y-58642380D01*
X24392380Y-58642380D02*
X24392380Y-57642380D01*
X24725714Y-58356666D01*
X25059047Y-57642380D01*
X25059047Y-58642380D01*
X25868571Y-58118571D02*
X26011428Y-58166190D01*
X26059047Y-58213809D01*
X26106666Y-58309047D01*
X26106666Y-58451904D01*
X26059047Y-58547142D01*
X26011428Y-58594761D01*
X25916190Y-58642380D01*
X25535238Y-58642380D01*
X25535238Y-57642380D01*
X25868571Y-57642380D01*
X25963809Y-57690000D01*
X26011428Y-57737619D01*
X26059047Y-57832857D01*
X26059047Y-57928095D01*
X26011428Y-58023333D01*
X25963809Y-58070952D01*
X25868571Y-58118571D01*
X25535238Y-58118571D01*
X26392380Y-57642380D02*
X26963809Y-57642380D01*
X26678095Y-58642380D02*
X26678095Y-57642380D01*
X27249523Y-57737619D02*
X27297142Y-57690000D01*
X27392380Y-57642380D01*
X27630476Y-57642380D01*
X27725714Y-57690000D01*
X27773333Y-57737619D01*
X27820952Y-57832857D01*
X27820952Y-57928095D01*
X27773333Y-58070952D01*
X27201904Y-58642380D01*
X27820952Y-58642380D01*
X28249523Y-58642380D02*
X28249523Y-57642380D01*
X28820952Y-58642380D01*
X28820952Y-57642380D01*
X29201904Y-57642380D02*
X29820952Y-57642380D01*
X29487619Y-58023333D01*
X29630476Y-58023333D01*
X29725714Y-58070952D01*
X29773333Y-58118571D01*
X29820952Y-58213809D01*
X29820952Y-58451904D01*
X29773333Y-58547142D01*
X29725714Y-58594761D01*
X29630476Y-58642380D01*
X29344761Y-58642380D01*
X29249523Y-58594761D01*
X29201904Y-58547142D01*
X30297142Y-58642380D02*
X30487619Y-58642380D01*
X30582857Y-58594761D01*
X30630476Y-58547142D01*
X30725714Y-58404285D01*
X30773333Y-58213809D01*
X30773333Y-57832857D01*
X30725714Y-57737619D01*
X30678095Y-57690000D01*
X30582857Y-57642380D01*
X30392380Y-57642380D01*
X30297142Y-57690000D01*
X30249523Y-57737619D01*
X30201904Y-57832857D01*
X30201904Y-58070952D01*
X30249523Y-58166190D01*
X30297142Y-58213809D01*
X30392380Y-58261428D01*
X30582857Y-58261428D01*
X30678095Y-58213809D01*
X30725714Y-58166190D01*
X30773333Y-58070952D01*
X31392380Y-57642380D02*
X31487619Y-57642380D01*
X31582857Y-57690000D01*
X31630476Y-57737619D01*
X31678095Y-57832857D01*
X31725714Y-58023333D01*
X31725714Y-58261428D01*
X31678095Y-58451904D01*
X31630476Y-58547142D01*
X31582857Y-58594761D01*
X31487619Y-58642380D01*
X31392380Y-58642380D01*
X31297142Y-58594761D01*
X31249523Y-58547142D01*
X31201904Y-58451904D01*
X31154285Y-58261428D01*
X31154285Y-58023333D01*
X31201904Y-57832857D01*
X31249523Y-57737619D01*
X31297142Y-57690000D01*
X31392380Y-57642380D01*
X32582857Y-57975714D02*
X32582857Y-58642380D01*
X32344761Y-57594761D02*
X32106666Y-58309047D01*
X32725714Y-58309047D01*
G04 #@! TO.C,Q1*
X44354761Y-70167619D02*
X44259523Y-70120000D01*
X44164285Y-70024761D01*
X44021428Y-69881904D01*
X43926190Y-69834285D01*
X43830952Y-69834285D01*
X43878571Y-70072380D02*
X43783333Y-70024761D01*
X43688095Y-69929523D01*
X43640476Y-69739047D01*
X43640476Y-69405714D01*
X43688095Y-69215238D01*
X43783333Y-69120000D01*
X43878571Y-69072380D01*
X44069047Y-69072380D01*
X44164285Y-69120000D01*
X44259523Y-69215238D01*
X44307142Y-69405714D01*
X44307142Y-69739047D01*
X44259523Y-69929523D01*
X44164285Y-70024761D01*
X44069047Y-70072380D01*
X43878571Y-70072380D01*
X45259523Y-70072380D02*
X44688095Y-70072380D01*
X44973809Y-70072380D02*
X44973809Y-69072380D01*
X44878571Y-69215238D01*
X44783333Y-69310476D01*
X44688095Y-69358095D01*
G04 #@! TO.C,Q2*
X35464761Y-70167619D02*
X35369523Y-70120000D01*
X35274285Y-70024761D01*
X35131428Y-69881904D01*
X35036190Y-69834285D01*
X34940952Y-69834285D01*
X34988571Y-70072380D02*
X34893333Y-70024761D01*
X34798095Y-69929523D01*
X34750476Y-69739047D01*
X34750476Y-69405714D01*
X34798095Y-69215238D01*
X34893333Y-69120000D01*
X34988571Y-69072380D01*
X35179047Y-69072380D01*
X35274285Y-69120000D01*
X35369523Y-69215238D01*
X35417142Y-69405714D01*
X35417142Y-69739047D01*
X35369523Y-69929523D01*
X35274285Y-70024761D01*
X35179047Y-70072380D01*
X34988571Y-70072380D01*
X35798095Y-69167619D02*
X35845714Y-69120000D01*
X35940952Y-69072380D01*
X36179047Y-69072380D01*
X36274285Y-69120000D01*
X36321904Y-69167619D01*
X36369523Y-69262857D01*
X36369523Y-69358095D01*
X36321904Y-69500952D01*
X35750476Y-70072380D01*
X36369523Y-70072380D01*
G04 #@! TO.C,R1*
X81113333Y-73222380D02*
X80780000Y-72746190D01*
X80541904Y-73222380D02*
X80541904Y-72222380D01*
X80922857Y-72222380D01*
X81018095Y-72270000D01*
X81065714Y-72317619D01*
X81113333Y-72412857D01*
X81113333Y-72555714D01*
X81065714Y-72650952D01*
X81018095Y-72698571D01*
X80922857Y-72746190D01*
X80541904Y-72746190D01*
X82065714Y-73222380D02*
X81494285Y-73222380D01*
X81780000Y-73222380D02*
X81780000Y-72222380D01*
X81684761Y-72365238D01*
X81589523Y-72460476D01*
X81494285Y-72508095D01*
G04 #@! TO.C,R2*
X81113333Y-78302380D02*
X80780000Y-77826190D01*
X80541904Y-78302380D02*
X80541904Y-77302380D01*
X80922857Y-77302380D01*
X81018095Y-77350000D01*
X81065714Y-77397619D01*
X81113333Y-77492857D01*
X81113333Y-77635714D01*
X81065714Y-77730952D01*
X81018095Y-77778571D01*
X80922857Y-77826190D01*
X80541904Y-77826190D01*
X81494285Y-77397619D02*
X81541904Y-77350000D01*
X81637142Y-77302380D01*
X81875238Y-77302380D01*
X81970476Y-77350000D01*
X82018095Y-77397619D01*
X82065714Y-77492857D01*
X82065714Y-77588095D01*
X82018095Y-77730952D01*
X81446666Y-78302380D01*
X82065714Y-78302380D01*
G04 #@! TO.C,R3*
X81113333Y-83382380D02*
X80780000Y-82906190D01*
X80541904Y-83382380D02*
X80541904Y-82382380D01*
X80922857Y-82382380D01*
X81018095Y-82430000D01*
X81065714Y-82477619D01*
X81113333Y-82572857D01*
X81113333Y-82715714D01*
X81065714Y-82810952D01*
X81018095Y-82858571D01*
X80922857Y-82906190D01*
X80541904Y-82906190D01*
X81446666Y-82382380D02*
X82065714Y-82382380D01*
X81732380Y-82763333D01*
X81875238Y-82763333D01*
X81970476Y-82810952D01*
X82018095Y-82858571D01*
X82065714Y-82953809D01*
X82065714Y-83191904D01*
X82018095Y-83287142D01*
X81970476Y-83334761D01*
X81875238Y-83382380D01*
X81589523Y-83382380D01*
X81494285Y-83334761D01*
X81446666Y-83287142D01*
G04 #@! TO.C,R4*
X81113333Y-88462380D02*
X80780000Y-87986190D01*
X80541904Y-88462380D02*
X80541904Y-87462380D01*
X80922857Y-87462380D01*
X81018095Y-87510000D01*
X81065714Y-87557619D01*
X81113333Y-87652857D01*
X81113333Y-87795714D01*
X81065714Y-87890952D01*
X81018095Y-87938571D01*
X80922857Y-87986190D01*
X80541904Y-87986190D01*
X81970476Y-87795714D02*
X81970476Y-88462380D01*
X81732380Y-87414761D02*
X81494285Y-88129047D01*
X82113333Y-88129047D01*
G04 #@! TO.C,R5*
X34362380Y-62396666D02*
X33886190Y-62730000D01*
X34362380Y-62968095D02*
X33362380Y-62968095D01*
X33362380Y-62587142D01*
X33410000Y-62491904D01*
X33457619Y-62444285D01*
X33552857Y-62396666D01*
X33695714Y-62396666D01*
X33790952Y-62444285D01*
X33838571Y-62491904D01*
X33886190Y-62587142D01*
X33886190Y-62968095D01*
X33362380Y-61491904D02*
X33362380Y-61968095D01*
X33838571Y-62015714D01*
X33790952Y-61968095D01*
X33743333Y-61872857D01*
X33743333Y-61634761D01*
X33790952Y-61539523D01*
X33838571Y-61491904D01*
X33933809Y-61444285D01*
X34171904Y-61444285D01*
X34267142Y-61491904D01*
X34314761Y-61539523D01*
X34362380Y-61634761D01*
X34362380Y-61872857D01*
X34314761Y-61968095D01*
X34267142Y-62015714D01*
G04 #@! TO.C,R6*
X46823333Y-85922380D02*
X46490000Y-85446190D01*
X46251904Y-85922380D02*
X46251904Y-84922380D01*
X46632857Y-84922380D01*
X46728095Y-84970000D01*
X46775714Y-85017619D01*
X46823333Y-85112857D01*
X46823333Y-85255714D01*
X46775714Y-85350952D01*
X46728095Y-85398571D01*
X46632857Y-85446190D01*
X46251904Y-85446190D01*
X47680476Y-84922380D02*
X47490000Y-84922380D01*
X47394761Y-84970000D01*
X47347142Y-85017619D01*
X47251904Y-85160476D01*
X47204285Y-85350952D01*
X47204285Y-85731904D01*
X47251904Y-85827142D01*
X47299523Y-85874761D01*
X47394761Y-85922380D01*
X47585238Y-85922380D01*
X47680476Y-85874761D01*
X47728095Y-85827142D01*
X47775714Y-85731904D01*
X47775714Y-85493809D01*
X47728095Y-85398571D01*
X47680476Y-85350952D01*
X47585238Y-85303333D01*
X47394761Y-85303333D01*
X47299523Y-85350952D01*
X47251904Y-85398571D01*
X47204285Y-85493809D01*
G04 #@! TO.C,SW1*
X62166666Y-69684761D02*
X62309523Y-69732380D01*
X62547619Y-69732380D01*
X62642857Y-69684761D01*
X62690476Y-69637142D01*
X62738095Y-69541904D01*
X62738095Y-69446666D01*
X62690476Y-69351428D01*
X62642857Y-69303809D01*
X62547619Y-69256190D01*
X62357142Y-69208571D01*
X62261904Y-69160952D01*
X62214285Y-69113333D01*
X62166666Y-69018095D01*
X62166666Y-68922857D01*
X62214285Y-68827619D01*
X62261904Y-68780000D01*
X62357142Y-68732380D01*
X62595238Y-68732380D01*
X62738095Y-68780000D01*
X63071428Y-68732380D02*
X63309523Y-69732380D01*
X63500000Y-69018095D01*
X63690476Y-69732380D01*
X63928571Y-68732380D01*
X64833333Y-69732380D02*
X64261904Y-69732380D01*
X64547619Y-69732380D02*
X64547619Y-68732380D01*
X64452380Y-68875238D01*
X64357142Y-68970476D01*
X64261904Y-69018095D01*
G04 #@! TO.C,J5*
X23796666Y-67802380D02*
X23796666Y-68516666D01*
X23749047Y-68659523D01*
X23653809Y-68754761D01*
X23510952Y-68802380D01*
X23415714Y-68802380D01*
X24749047Y-67802380D02*
X24272857Y-67802380D01*
X24225238Y-68278571D01*
X24272857Y-68230952D01*
X24368095Y-68183333D01*
X24606190Y-68183333D01*
X24701428Y-68230952D01*
X24749047Y-68278571D01*
X24796666Y-68373809D01*
X24796666Y-68611904D01*
X24749047Y-68707142D01*
X24701428Y-68754761D01*
X24606190Y-68802380D01*
X24368095Y-68802380D01*
X24272857Y-68754761D01*
X24225238Y-68707142D01*
G04 #@! TO.C,J6*
X21256666Y-57642380D02*
X21256666Y-58356666D01*
X21209047Y-58499523D01*
X21113809Y-58594761D01*
X20970952Y-58642380D01*
X20875714Y-58642380D01*
X22161428Y-57642380D02*
X21970952Y-57642380D01*
X21875714Y-57690000D01*
X21828095Y-57737619D01*
X21732857Y-57880476D01*
X21685238Y-58070952D01*
X21685238Y-58451904D01*
X21732857Y-58547142D01*
X21780476Y-58594761D01*
X21875714Y-58642380D01*
X22066190Y-58642380D01*
X22161428Y-58594761D01*
X22209047Y-58547142D01*
X22256666Y-58451904D01*
X22256666Y-58213809D01*
X22209047Y-58118571D01*
X22161428Y-58070952D01*
X22066190Y-58023333D01*
X21875714Y-58023333D01*
X21780476Y-58070952D01*
X21732857Y-58118571D01*
X21685238Y-58213809D01*
G04 #@! TD*
M02*
